<svg xmlns="http://www.w3.org/2000/svg" width="2143" height="1634" viewBox="0 0 2143 1634" font-family="Segoe UI, Roboto, Helvetica, Arial, sans-serif">
<defs><marker id="call" markerWidth="11" markerHeight="11" refX="8" refY="4" orient="auto"><path d="M0,0 L9,4 L0,8 z" fill="#2b3a4a"/></marker><marker id="ret" markerWidth="12" markerHeight="12" refX="8" refY="4" orient="auto"><path d="M0,0 L9,4 L0,8" fill="none" stroke="#78868f" stroke-width="1.2"/></marker></defs>
<rect x="0" y="0" width="2143" height="1634" rx="10" fill="#ffffff" stroke="#d7dee4"/>
<text x="1071.5" y="34" text-anchor="middle" font-size="20" font-weight="700" fill="#1f2933">Federated Login — returning user (existing identity)</text>
<line x1="92" y1="114" x2="92" y2="1556" stroke="#c4ccd4" stroke-width="1.4" stroke-dasharray="2 5"/>
<g><rect x="17" y="66" width="150" height="48" rx="7" fill="#b45309"/><text x="92" y="86" text-anchor="middle" font-size="13" font-weight="700" fill="#ffffff">Client</text><text x="92" y="102" text-anchor="middle" font-size="10" fill="#ffffff" opacity="0.82">Browser / Mobile</text></g>
<g><rect x="17" y="1556" width="150" height="48" rx="7" fill="#b45309"/><text x="92" y="1576" text-anchor="middle" font-size="13" font-weight="700" fill="#ffffff">Client</text><text x="92" y="1592" text-anchor="middle" font-size="10" fill="#ffffff" opacity="0.82">Browser / Mobile</text></g>
<line x1="268" y1="114" x2="268" y2="1556" stroke="#c4ccd4" stroke-width="1.4" stroke-dasharray="2 5"/>
<g><rect x="193" y="66" width="150" height="48" rx="7" fill="#1d4ed8"/><text x="268" y="86" text-anchor="middle" font-size="13" font-weight="700" fill="#ffffff">Controller</text><text x="268" y="102" text-anchor="middle" font-size="10" fill="#ffffff" opacity="0.82">FederatedAuthController</text></g>
<g><rect x="193" y="1556" width="150" height="48" rx="7" fill="#1d4ed8"/><text x="268" y="1576" text-anchor="middle" font-size="13" font-weight="700" fill="#ffffff">Controller</text><text x="268" y="1592" text-anchor="middle" font-size="10" fill="#ffffff" opacity="0.82">FederatedAuthController</text></g>
<line x1="444" y1="114" x2="444" y2="1556" stroke="#c4ccd4" stroke-width="1.4" stroke-dasharray="2 5"/>
<g><rect x="369" y="66" width="150" height="48" rx="7" fill="#6d28d9"/><text x="444" y="86" text-anchor="middle" font-size="13" font-weight="700" fill="#ffffff">Broker</text><text x="444" y="102" text-anchor="middle" font-size="10" fill="#ffffff" opacity="0.82">FederatedAuthBroker</text></g>
<g><rect x="369" y="1556" width="150" height="48" rx="7" fill="#6d28d9"/><text x="444" y="1576" text-anchor="middle" font-size="13" font-weight="700" fill="#ffffff">Broker</text><text x="444" y="1592" text-anchor="middle" font-size="10" fill="#ffffff" opacity="0.82">FederatedAuthBroker</text></g>
<line x1="620" y1="114" x2="620" y2="1556" stroke="#c4ccd4" stroke-width="1.4" stroke-dasharray="2 5"/>
<g><rect x="545" y="66" width="150" height="48" rx="7" fill="#0f766e"/><text x="620" y="86" text-anchor="middle" font-size="13" font-weight="700" fill="#ffffff">State Store</text><text x="620" y="102" text-anchor="middle" font-size="10" fill="#ffffff" opacity="0.82">OAuthStateStore</text></g>
<g><rect x="545" y="1556" width="150" height="48" rx="7" fill="#0f766e"/><text x="620" y="1576" text-anchor="middle" font-size="13" font-weight="700" fill="#ffffff">State Store</text><text x="620" y="1592" text-anchor="middle" font-size="10" fill="#ffffff" opacity="0.82">OAuthStateStore</text></g>
<line x1="796" y1="114" x2="796" y2="1556" stroke="#c4ccd4" stroke-width="1.4" stroke-dasharray="2 5"/>
<g><rect x="721" y="66" width="150" height="48" rx="7" fill="#0f766e"/><text x="796" y="86" text-anchor="middle" font-size="13" font-weight="700" fill="#ffffff">Adapter</text><text x="796" y="102" text-anchor="middle" font-size="10" fill="#ffffff" opacity="0.82">ProviderAdapter</text></g>
<g><rect x="721" y="1556" width="150" height="48" rx="7" fill="#0f766e"/><text x="796" y="1576" text-anchor="middle" font-size="13" font-weight="700" fill="#ffffff">Adapter</text><text x="796" y="1592" text-anchor="middle" font-size="10" fill="#ffffff" opacity="0.82">ProviderAdapter</text></g>
<line x1="972" y1="114" x2="972" y2="1556" stroke="#c4ccd4" stroke-width="1.4" stroke-dasharray="2 5"/>
<g><rect x="897" y="66" width="150" height="48" rx="7" fill="#334155"/><text x="972" y="86" text-anchor="middle" font-size="13" font-weight="700" fill="#ffffff">Provider</text><text x="972" y="102" text-anchor="middle" font-size="10" fill="#ffffff" opacity="0.82">External IdP</text></g>
<g><rect x="897" y="1556" width="150" height="48" rx="7" fill="#334155"/><text x="972" y="1576" text-anchor="middle" font-size="13" font-weight="700" fill="#ffffff">Provider</text><text x="972" y="1592" text-anchor="middle" font-size="10" fill="#ffffff" opacity="0.82">External IdP</text></g>
<line x1="1148" y1="114" x2="1148" y2="1556" stroke="#c4ccd4" stroke-width="1.4" stroke-dasharray="2 5"/>
<g><rect x="1073" y="66" width="150" height="48" rx="7" fill="#047857"/><text x="1148" y="86" text-anchor="middle" font-size="13" font-weight="700" fill="#ffffff">Link Repo</text><text x="1148" y="102" text-anchor="middle" font-size="10" fill="#ffffff" opacity="0.82">IdentityLinkRepository</text></g>
<g><rect x="1073" y="1556" width="150" height="48" rx="7" fill="#047857"/><text x="1148" y="1576" text-anchor="middle" font-size="13" font-weight="700" fill="#ffffff">Link Repo</text><text x="1148" y="1592" text-anchor="middle" font-size="10" fill="#ffffff" opacity="0.82">IdentityLinkRepository</text></g>
<line x1="1324" y1="114" x2="1324" y2="1556" stroke="#c4ccd4" stroke-width="1.4" stroke-dasharray="2 5"/>
<g><rect x="1249" y="66" width="150" height="48" rx="7" fill="#047857"/><text x="1324" y="86" text-anchor="middle" font-size="13" font-weight="700" fill="#ffffff">Resolver</text><text x="1324" y="102" text-anchor="middle" font-size="10" fill="#ffffff" opacity="0.82">UserResolver</text></g>
<g><rect x="1249" y="1556" width="150" height="48" rx="7" fill="#047857"/><text x="1324" y="1576" text-anchor="middle" font-size="13" font-weight="700" fill="#ffffff">Resolver</text><text x="1324" y="1592" text-anchor="middle" font-size="10" fill="#ffffff" opacity="0.82">UserResolver</text></g>
<line x1="1500" y1="114" x2="1500" y2="1556" stroke="#c4ccd4" stroke-width="1.4" stroke-dasharray="2 5"/>
<g><rect x="1425" y="66" width="150" height="48" rx="7" fill="#047857"/><text x="1500" y="86" text-anchor="middle" font-size="13" font-weight="700" fill="#ffffff">Status Checker</text><text x="1500" y="102" text-anchor="middle" font-size="10" fill="#ffffff" opacity="0.82">UserStatusChecker</text></g>
<g><rect x="1425" y="1556" width="150" height="48" rx="7" fill="#047857"/><text x="1500" y="1576" text-anchor="middle" font-size="13" font-weight="700" fill="#ffffff">Status Checker</text><text x="1500" y="1592" text-anchor="middle" font-size="10" fill="#ffffff" opacity="0.82">UserStatusChecker</text></g>
<line x1="1676" y1="114" x2="1676" y2="1556" stroke="#c4ccd4" stroke-width="1.4" stroke-dasharray="2 5"/>
<g><rect x="1601" y="66" width="150" height="48" rx="7" fill="#047857"/><text x="1676" y="86" text-anchor="middle" font-size="13" font-weight="700" fill="#ffffff">Role Mapper</text><text x="1676" y="102" text-anchor="middle" font-size="10" fill="#ffffff" opacity="0.82">RoleMapper</text></g>
<g><rect x="1601" y="1556" width="150" height="48" rx="7" fill="#047857"/><text x="1676" y="1576" text-anchor="middle" font-size="13" font-weight="700" fill="#ffffff">Role Mapper</text><text x="1676" y="1592" text-anchor="middle" font-size="10" fill="#ffffff" opacity="0.82">RoleMapper</text></g>
<line x1="1852" y1="114" x2="1852" y2="1556" stroke="#c4ccd4" stroke-width="1.4" stroke-dasharray="2 5"/>
<g><rect x="1777" y="66" width="150" height="48" rx="7" fill="#047857"/><text x="1852" y="86" text-anchor="middle" font-size="13" font-weight="700" fill="#ffffff">Token Issuer</text><text x="1852" y="102" text-anchor="middle" font-size="10" fill="#ffffff" opacity="0.82">TokenIssuer</text></g>
<g><rect x="1777" y="1556" width="150" height="48" rx="7" fill="#047857"/><text x="1852" y="1576" text-anchor="middle" font-size="13" font-weight="700" fill="#ffffff">Token Issuer</text><text x="1852" y="1592" text-anchor="middle" font-size="10" fill="#ffffff" opacity="0.82">TokenIssuer</text></g>
<line x1="2028" y1="114" x2="2028" y2="1556" stroke="#c4ccd4" stroke-width="1.4" stroke-dasharray="2 5"/>
<g><rect x="1953" y="66" width="150" height="48" rx="7" fill="#1d4ed8"/><text x="2028" y="86" text-anchor="middle" font-size="13" font-weight="700" fill="#ffffff">Formatter</text><text x="2028" y="102" text-anchor="middle" font-size="10" fill="#ffffff" opacity="0.82">AuthResponseFormatter</text></g>
<g><rect x="1953" y="1556" width="150" height="48" rx="7" fill="#1d4ed8"/><text x="2028" y="1576" text-anchor="middle" font-size="13" font-weight="700" fill="#ffffff">Formatter</text><text x="2028" y="1592" text-anchor="middle" font-size="10" fill="#ffffff" opacity="0.82">AuthResponseFormatter</text></g>
<g><line x1="24" y1="162" x2="2119" y2="162" stroke="#e2e8ee" stroke-width="1"/><rect x="954.6" y="149" width="233.8" height="26" rx="13" fill="#eef2f6" stroke="#cfd8e0"/><text x="1071.5" y="166" text-anchor="middle" font-size="11.5" font-weight="700" letter-spacing="0.6" fill="#516170">1 · AUTHORIZATION REDIRECT</text></g>
<g><rect x="-4.975" y="171" width="369.95" height="15" fill="#ffffff"/><text x="180" y="183" text-anchor="middle" font-size="12" fill="#2c3742">GET /{provider}/redirect  (tenant_id, user_type, channel)</text><line x1="92" y1="192" x2="268" y2="192" stroke="#2b3a4a" stroke-width="1.5" marker-end="url(#call)"/></g>
<g><rect x="244.05" y="207" width="223.9" height="15" fill="#ffffff"/><text x="356" y="219" text-anchor="middle" font-size="12" fill="#2c3742">redirectUrl(provider, AuthContext)</text><line x1="268" y1="228" x2="444" y2="228" stroke="#2b3a4a" stroke-width="1.5" marker-end="url(#call)"/></g>
<g><rect x="552.5" y="243" width="135" height="15" fill="#ffffff"/><text x="620" y="255" text-anchor="middle" font-size="12" fill="#2c3742">redirectUrl(context)</text><line x1="444" y1="264" x2="796" y2="264" stroke="#2b3a4a" stroke-width="1.5" marker-end="url(#call)"/></g>
<g><rect x="624.625" y="279" width="166.75" height="15" fill="#ffffff"/><text x="708" y="291" text-anchor="middle" font-size="12" fill="#2c3742">create(provider, context)</text><line x1="796" y1="300" x2="620" y2="300" stroke="#2b3a4a" stroke-width="1.5" marker-end="url(#call)"/></g>
<g><rect x="535.725" y="315" width="344.55" height="15" fill="#ffffff"/><text x="708" y="327" text-anchor="middle" font-size="12" fill="#2c3742">OAuthAuthorizationState (one-time state, nonce, PKCE)</text><line x1="620" y1="336" x2="796" y2="336" stroke="#78868f" stroke-width="1.5" stroke-dasharray="6 4" marker-end="url(#ret)"/></g>
<g><rect x="508.05" y="351" width="223.9" height="15" fill="#ffffff"/><text x="620" y="363" text-anchor="middle" font-size="12" fill="#2c3742">provider authorize URL (stateless)</text><line x1="796" y1="372" x2="444" y2="372" stroke="#78868f" stroke-width="1.5" stroke-dasharray="6 4" marker-end="url(#ret)"/></g>
<g><rect x="342.475" y="387" width="27.05" height="15" fill="#ffffff"/><text x="356" y="399" text-anchor="middle" font-size="12" fill="#2c3742">URL</text><line x1="444" y1="408" x2="268" y2="408" stroke="#78868f" stroke-width="1.5" stroke-dasharray="6 4" marker-end="url(#ret)"/></g>
<g><rect x="90.275" y="423" width="179.45" height="15" fill="#ffffff"/><text x="180" y="435" text-anchor="middle" font-size="12" fill="#2c3742">302 Redirect  →  provider</text><line x1="268" y1="444" x2="92" y2="444" stroke="#78868f" stroke-width="1.5" stroke-dasharray="6 4" marker-end="url(#ret)"/></g>
<g><line x1="24" y1="494" x2="2119" y2="494" stroke="#e2e8ee" stroke-width="1"/><rect x="950.9" y="481" width="241.2" height="26" rx="13" fill="#eef2f6" stroke="#cfd8e0"/><text x="1071.5" y="498" text-anchor="middle" font-size="11.5" font-weight="700" letter-spacing="0.6" fill="#516170">2 · PROVIDER AUTHENTICATION</text></g>
<g><rect x="458.15" y="503" width="147.7" height="15" fill="#ffffff"/><text x="532" y="515" text-anchor="middle" font-size="12" fill="#2c3742">authenticate + consent</text><line x1="92" y1="524" x2="972" y2="524" stroke="#2b3a4a" stroke-width="1.5" marker-end="url(#call)"/></g>
<g><rect x="432.75" y="539" width="198.5" height="15" fill="#ffffff"/><text x="532" y="551" text-anchor="middle" font-size="12" fill="#2c3742">302  →  /callback?code&amp;state</text><line x1="972" y1="560" x2="92" y2="560" stroke="#78868f" stroke-width="1.5" stroke-dasharray="6 4" marker-end="url(#ret)"/></g>
<g><line x1="24" y1="610" x2="2119" y2="610" stroke="#e2e8ee" stroke-width="1"/><rect x="954.6" y="597" width="233.8" height="26" rx="13" fill="#eef2f6" stroke="#cfd8e0"/><text x="1071.5" y="614" text-anchor="middle" font-size="11.5" font-weight="700" letter-spacing="0.6" fill="#516170">3 · CALLBACK &amp; LOCAL LOGIN</text></g>
<g><rect x="64.875" y="619" width="230.25" height="15" fill="#ffffff"/><text x="180" y="631" text-anchor="middle" font-size="12" fill="#2c3742">GET /{provider}/callback?code&amp;state</text><line x1="92" y1="640" x2="268" y2="640" stroke="#2b3a4a" stroke-width="1.5" marker-end="url(#call)"/></g>
<g><rect x="237.7" y="655" width="236.6" height="15" fill="#ffffff"/><text x="356" y="667" text-anchor="middle" font-size="12" fill="#2c3742">loginFromCallback(provider, context)</text><line x1="268" y1="676" x2="444" y2="676" stroke="#2b3a4a" stroke-width="1.5" marker-end="url(#call)"/></g>
<g><rect x="423.225" y="691" width="217.55" height="15" fill="#ffffff"/><text x="532" y="703" text-anchor="middle" font-size="12" fill="#2c3742">consume(provider, state, request)</text><line x1="444" y1="712" x2="620" y2="712" stroke="#2b3a4a" stroke-width="1.5" marker-end="url(#call)"/></g>
<g><rect x="359.725" y="727" width="344.55" height="15" fill="#ffffff"/><text x="532" y="739" text-anchor="middle" font-size="12" fill="#2c3742">state OK  →  restore tenant/user_type/channel/guard</text><line x1="620" y1="748" x2="444" y2="748" stroke="#78868f" stroke-width="1.5" stroke-dasharray="6 4" marker-end="url(#ret)"/></g>
<g><rect x="458" y="784" width="327.8" height="44" rx="4" fill="#fff6e5" stroke="#efc667"/><text x="470" y="801" font-size="11" fill="#7a5b12">One-time state consumed: replay rejected;</text><text x="470" y="815" font-size="11" fill="#7a5b12">app context restored from the stored transaction.</text></g>
<g><rect x="536.625" y="833" width="166.75" height="15" fill="#ffffff"/><text x="620" y="845" text-anchor="middle" font-size="12" fill="#2c3742">userFromCallback(context)</text><line x1="444" y1="854" x2="796" y2="854" stroke="#2b3a4a" stroke-width="1.5" marker-end="url(#call)"/></g>
<g><rect x="759.35" y="869" width="249.3" height="15" fill="#ffffff"/><text x="884" y="881" text-anchor="middle" font-size="12" fill="#2c3742">exchange code / fetch profile + claims</text><line x1="796" y1="890" x2="972" y2="890" stroke="#2b3a4a" stroke-width="1.5" marker-end="url(#call)"/></g>
<g><rect x="829.2" y="905" width="109.6" height="15" fill="#ffffff"/><text x="884" y="917" text-anchor="middle" font-size="12" fill="#2c3742">profile + claims</text><line x1="972" y1="926" x2="796" y2="926" stroke="#78868f" stroke-width="1.5" stroke-dasharray="6 4" marker-end="url(#ret)"/></g>
<g><rect x="523.925" y="941" width="192.15" height="15" fill="#ffffff"/><text x="620" y="953" text-anchor="middle" font-size="12" fill="#2c3742">ExternalIdentity (normalized)</text><line x1="796" y1="962" x2="444" y2="962" stroke="#78868f" stroke-width="1.5" stroke-dasharray="6 4" marker-end="url(#ret)"/></g>
<g><path d="M444,998 h46 v18 h-46" fill="none" stroke="#2b3a4a" stroke-width="1.5" marker-end="url(#call)"/><text x="498" y="1003" font-size="12" fill="#2c3742">validateIdentity()  ·  email / user_type / admin guard</text></g>
<g><rect x="639.6" y="1019" width="312.8" height="15" fill="#ffffff"/><text x="796" y="1031" text-anchor="middle" font-size="12" fill="#2c3742">findByProviderIdentity(provider, providerUserId)</text><line x1="444" y1="1040" x2="1148" y2="1040" stroke="#2b3a4a" stroke-width="1.5" marker-end="url(#call)"/></g>
<g><rect x="718.975" y="1055" width="154.05" height="15" fill="#ffffff"/><text x="796" y="1067" text-anchor="middle" font-size="12" fill="#2c3742">LinkedIdentity  (found)</text><line x1="1148" y1="1076" x2="444" y2="1076" stroke="#78868f" stroke-width="1.5" stroke-dasharray="6 4" marker-end="url(#ret)"/></g>
<g><rect x="819.675" y="1091" width="128.65" height="15" fill="#ffffff"/><text x="884" y="1103" text-anchor="middle" font-size="12" fill="#2c3742">resolveById(userId)</text><line x1="444" y1="1112" x2="1324" y2="1112" stroke="#2b3a4a" stroke-width="1.5" marker-end="url(#call)"/></g>
<g><rect x="848.25" y="1127" width="71.5" height="15" fill="#ffffff"/><text x="884" y="1139" text-anchor="middle" font-size="12" fill="#2c3742">local user</text><line x1="1324" y1="1148" x2="444" y2="1148" stroke="#78868f" stroke-width="1.5" stroke-dasharray="6 4" marker-end="url(#ret)"/></g>
<g><rect x="818.775" y="1163" width="306.45" height="15" fill="#ffffff"/><text x="972" y="1175" text-anchor="middle" font-size="12" fill="#2c3742">ensureCanLogin(user)  ·  blocks disabled users</text><line x1="444" y1="1184" x2="1500" y2="1184" stroke="#2b3a4a" stroke-width="1.5" marker-end="url(#call)"/></g>
<g><rect x="639.6" y="1199" width="312.8" height="15" fill="#ffffff"/><text x="796" y="1211" text-anchor="middle" font-size="12" fill="#2c3742">touch(link, identity)  ·  last_login_at, claims</text><line x1="444" y1="1220" x2="1148" y2="1220" stroke="#2b3a4a" stroke-width="1.5" marker-end="url(#call)"/></g>
<g><rect x="992.5" y="1235" width="135" height="15" fill="#ffffff"/><text x="1060" y="1247" text-anchor="middle" font-size="12" fill="#2c3742">sync(user, identity)</text><line x1="444" y1="1256" x2="1676" y2="1256" stroke="#2b3a4a" stroke-width="1.5" marker-end="url(#call)"/></g>
<g><rect x="1080.5" y="1271" width="135" height="15" fill="#ffffff"/><text x="1148" y="1283" text-anchor="middle" font-size="12" fill="#2c3742">issue(user, context)</text><line x1="444" y1="1292" x2="1852" y2="1292" stroke="#2b3a4a" stroke-width="1.5" marker-end="url(#call)"/></g>
<g><rect x="1090.025" y="1307" width="115.95" height="15" fill="#ffffff"/><text x="1148" y="1319" text-anchor="middle" font-size="12" fill="#2c3742">tokens + metadata</text><line x1="1852" y1="1328" x2="444" y2="1328" stroke="#78868f" stroke-width="1.5" stroke-dasharray="6 4" marker-end="url(#ret)"/></g>
<g><path d="M444,1364 h46 v18 h-46" fill="none" stroke="#2b3a4a" stroke-width="1.5" marker-end="url(#call)"/><text x="498" y="1369" font-size="12" fill="#2c3742">event ExternalLoginSucceeded</text></g>
<g><rect x="186.9" y="1385" width="338.2" height="15" fill="#ffffff"/><text x="356" y="1397" text-anchor="middle" font-size="12" fill="#2c3742">AuthResult (was_provisioned=false, was_linked=false)</text><line x1="444" y1="1406" x2="268" y2="1406" stroke="#78868f" stroke-width="1.5" stroke-dasharray="6 4" marker-end="url(#ret)"/></g>
<g><rect x="1070.975" y="1421" width="154.05" height="15" fill="#ffffff"/><text x="1148" y="1433" text-anchor="middle" font-size="12" fill="#2c3742">format(result, context)</text><line x1="268" y1="1442" x2="2028" y2="1442" stroke="#2b3a4a" stroke-width="1.5" marker-end="url(#call)"/></g>
<g><rect x="1093.2" y="1457" width="109.6" height="15" fill="#ffffff"/><text x="1148" y="1469" text-anchor="middle" font-size="12" fill="#2c3742">response payload</text><line x1="2028" y1="1478" x2="268" y2="1478" stroke="#78868f" stroke-width="1.5" stroke-dasharray="6 4" marker-end="url(#ret)"/></g>
<g><rect x="36.3" y="1493" width="287.4" height="15" fill="#ffffff"/><text x="180" y="1505" text-anchor="middle" font-size="12" fill="#2c3742">200 JSON  { access_token, token_type, user }</text><line x1="268" y1="1514" x2="92" y2="1514" stroke="#78868f" stroke-width="1.5" stroke-dasharray="6 4" marker-end="url(#ret)"/></g>
</svg>
