<svg xmlns="http://www.w3.org/2000/svg" width="2319" height="1594" viewBox="0 0 2319 1594" font-family="Segoe UI, Roboto, Helvetica, Arial, sans-serif">
<defs><marker id="call" markerWidth="11" markerHeight="11" refX="8" refY="4" orient="auto"><path d="M0,0 L9,4 L0,8 z" fill="#2b3a4a"/></marker><marker id="ret" markerWidth="12" markerHeight="12" refX="8" refY="4" orient="auto"><path d="M0,0 L9,4 L0,8" fill="none" stroke="#78868f" stroke-width="1.2"/></marker></defs>
<rect x="0" y="0" width="2319" height="1594" rx="10" fill="#ffffff" stroke="#d7dee4"/>
<text x="1159.5" y="34" text-anchor="middle" font-size="20" font-weight="700" fill="#1f2933">Federated Registration — first-time user (auto-provision)</text>
<line x1="92" y1="114" x2="92" y2="1516" stroke="#c4ccd4" stroke-width="1.4" stroke-dasharray="2 5"/>
<g><rect x="17" y="66" width="150" height="48" rx="7" fill="#b45309"/><text x="92" y="86" text-anchor="middle" font-size="13" font-weight="700" fill="#ffffff">Client</text><text x="92" y="102" text-anchor="middle" font-size="10" fill="#ffffff" opacity="0.82">Browser / Mobile</text></g>
<g><rect x="17" y="1516" width="150" height="48" rx="7" fill="#b45309"/><text x="92" y="1536" text-anchor="middle" font-size="13" font-weight="700" fill="#ffffff">Client</text><text x="92" y="1552" text-anchor="middle" font-size="10" fill="#ffffff" opacity="0.82">Browser / Mobile</text></g>
<line x1="268" y1="114" x2="268" y2="1516" stroke="#c4ccd4" stroke-width="1.4" stroke-dasharray="2 5"/>
<g><rect x="193" y="66" width="150" height="48" rx="7" fill="#1d4ed8"/><text x="268" y="86" text-anchor="middle" font-size="13" font-weight="700" fill="#ffffff">Controller</text><text x="268" y="102" text-anchor="middle" font-size="10" fill="#ffffff" opacity="0.82">FederatedAuthController</text></g>
<g><rect x="193" y="1516" width="150" height="48" rx="7" fill="#1d4ed8"/><text x="268" y="1536" text-anchor="middle" font-size="13" font-weight="700" fill="#ffffff">Controller</text><text x="268" y="1552" text-anchor="middle" font-size="10" fill="#ffffff" opacity="0.82">FederatedAuthController</text></g>
<line x1="444" y1="114" x2="444" y2="1516" stroke="#c4ccd4" stroke-width="1.4" stroke-dasharray="2 5"/>
<g><rect x="369" y="66" width="150" height="48" rx="7" fill="#6d28d9"/><text x="444" y="86" text-anchor="middle" font-size="13" font-weight="700" fill="#ffffff">Broker</text><text x="444" y="102" text-anchor="middle" font-size="10" fill="#ffffff" opacity="0.82">FederatedAuthBroker</text></g>
<g><rect x="369" y="1516" width="150" height="48" rx="7" fill="#6d28d9"/><text x="444" y="1536" text-anchor="middle" font-size="13" font-weight="700" fill="#ffffff">Broker</text><text x="444" y="1552" text-anchor="middle" font-size="10" fill="#ffffff" opacity="0.82">FederatedAuthBroker</text></g>
<line x1="620" y1="114" x2="620" y2="1516" stroke="#c4ccd4" stroke-width="1.4" stroke-dasharray="2 5"/>
<g><rect x="545" y="66" width="150" height="48" rx="7" fill="#0f766e"/><text x="620" y="86" text-anchor="middle" font-size="13" font-weight="700" fill="#ffffff">State Store</text><text x="620" y="102" text-anchor="middle" font-size="10" fill="#ffffff" opacity="0.82">OAuthStateStore</text></g>
<g><rect x="545" y="1516" width="150" height="48" rx="7" fill="#0f766e"/><text x="620" y="1536" text-anchor="middle" font-size="13" font-weight="700" fill="#ffffff">State Store</text><text x="620" y="1552" text-anchor="middle" font-size="10" fill="#ffffff" opacity="0.82">OAuthStateStore</text></g>
<line x1="796" y1="114" x2="796" y2="1516" stroke="#c4ccd4" stroke-width="1.4" stroke-dasharray="2 5"/>
<g><rect x="721" y="66" width="150" height="48" rx="7" fill="#0f766e"/><text x="796" y="86" text-anchor="middle" font-size="13" font-weight="700" fill="#ffffff">Adapter</text><text x="796" y="102" text-anchor="middle" font-size="10" fill="#ffffff" opacity="0.82">ProviderAdapter</text></g>
<g><rect x="721" y="1516" width="150" height="48" rx="7" fill="#0f766e"/><text x="796" y="1536" text-anchor="middle" font-size="13" font-weight="700" fill="#ffffff">Adapter</text><text x="796" y="1552" text-anchor="middle" font-size="10" fill="#ffffff" opacity="0.82">ProviderAdapter</text></g>
<line x1="972" y1="114" x2="972" y2="1516" stroke="#c4ccd4" stroke-width="1.4" stroke-dasharray="2 5"/>
<g><rect x="897" y="66" width="150" height="48" rx="7" fill="#334155"/><text x="972" y="86" text-anchor="middle" font-size="13" font-weight="700" fill="#ffffff">Provider</text><text x="972" y="102" text-anchor="middle" font-size="10" fill="#ffffff" opacity="0.82">External IdP</text></g>
<g><rect x="897" y="1516" width="150" height="48" rx="7" fill="#334155"/><text x="972" y="1536" text-anchor="middle" font-size="13" font-weight="700" fill="#ffffff">Provider</text><text x="972" y="1552" text-anchor="middle" font-size="10" fill="#ffffff" opacity="0.82">External IdP</text></g>
<line x1="1148" y1="114" x2="1148" y2="1516" stroke="#c4ccd4" stroke-width="1.4" stroke-dasharray="2 5"/>
<g><rect x="1073" y="66" width="150" height="48" rx="7" fill="#047857"/><text x="1148" y="86" text-anchor="middle" font-size="13" font-weight="700" fill="#ffffff">Link Repo</text><text x="1148" y="102" text-anchor="middle" font-size="10" fill="#ffffff" opacity="0.82">IdentityLinkRepository</text></g>
<g><rect x="1073" y="1516" width="150" height="48" rx="7" fill="#047857"/><text x="1148" y="1536" text-anchor="middle" font-size="13" font-weight="700" fill="#ffffff">Link Repo</text><text x="1148" y="1552" text-anchor="middle" font-size="10" fill="#ffffff" opacity="0.82">IdentityLinkRepository</text></g>
<line x1="1324" y1="114" x2="1324" y2="1516" stroke="#c4ccd4" stroke-width="1.4" stroke-dasharray="2 5"/>
<g><rect x="1249" y="66" width="150" height="48" rx="7" fill="#047857"/><text x="1324" y="86" text-anchor="middle" font-size="13" font-weight="700" fill="#ffffff">Resolver</text><text x="1324" y="102" text-anchor="middle" font-size="10" fill="#ffffff" opacity="0.82">UserResolver</text></g>
<g><rect x="1249" y="1516" width="150" height="48" rx="7" fill="#047857"/><text x="1324" y="1536" text-anchor="middle" font-size="13" font-weight="700" fill="#ffffff">Resolver</text><text x="1324" y="1552" text-anchor="middle" font-size="10" fill="#ffffff" opacity="0.82">UserResolver</text></g>
<line x1="1500" y1="114" x2="1500" y2="1516" stroke="#c4ccd4" stroke-width="1.4" stroke-dasharray="2 5"/>
<g><rect x="1425" y="66" width="150" height="48" rx="7" fill="#b91c1c"/><text x="1500" y="86" text-anchor="middle" font-size="13" font-weight="700" fill="#ffffff">Provisioner</text><text x="1500" y="102" text-anchor="middle" font-size="10" fill="#ffffff" opacity="0.82">UserProvisioner</text></g>
<g><rect x="1425" y="1516" width="150" height="48" rx="7" fill="#b91c1c"/><text x="1500" y="1536" text-anchor="middle" font-size="13" font-weight="700" fill="#ffffff">Provisioner</text><text x="1500" y="1552" text-anchor="middle" font-size="10" fill="#ffffff" opacity="0.82">UserProvisioner</text></g>
<line x1="1676" y1="114" x2="1676" y2="1516" stroke="#c4ccd4" stroke-width="1.4" stroke-dasharray="2 5"/>
<g><rect x="1601" y="66" width="150" height="48" rx="7" fill="#047857"/><text x="1676" y="86" text-anchor="middle" font-size="13" font-weight="700" fill="#ffffff">Status Checker</text><text x="1676" y="102" text-anchor="middle" font-size="10" fill="#ffffff" opacity="0.82">UserStatusChecker</text></g>
<g><rect x="1601" y="1516" width="150" height="48" rx="7" fill="#047857"/><text x="1676" y="1536" text-anchor="middle" font-size="13" font-weight="700" fill="#ffffff">Status Checker</text><text x="1676" y="1552" text-anchor="middle" font-size="10" fill="#ffffff" opacity="0.82">UserStatusChecker</text></g>
<line x1="1852" y1="114" x2="1852" y2="1516" stroke="#c4ccd4" stroke-width="1.4" stroke-dasharray="2 5"/>
<g><rect x="1777" y="66" width="150" height="48" rx="7" fill="#047857"/><text x="1852" y="86" text-anchor="middle" font-size="13" font-weight="700" fill="#ffffff">Role Mapper</text><text x="1852" y="102" text-anchor="middle" font-size="10" fill="#ffffff" opacity="0.82">RoleMapper</text></g>
<g><rect x="1777" y="1516" width="150" height="48" rx="7" fill="#047857"/><text x="1852" y="1536" text-anchor="middle" font-size="13" font-weight="700" fill="#ffffff">Role Mapper</text><text x="1852" y="1552" text-anchor="middle" font-size="10" fill="#ffffff" opacity="0.82">RoleMapper</text></g>
<line x1="2028" y1="114" x2="2028" y2="1516" stroke="#c4ccd4" stroke-width="1.4" stroke-dasharray="2 5"/>
<g><rect x="1953" y="66" width="150" height="48" rx="7" fill="#047857"/><text x="2028" y="86" text-anchor="middle" font-size="13" font-weight="700" fill="#ffffff">Token Issuer</text><text x="2028" y="102" text-anchor="middle" font-size="10" fill="#ffffff" opacity="0.82">TokenIssuer</text></g>
<g><rect x="1953" y="1516" width="150" height="48" rx="7" fill="#047857"/><text x="2028" y="1536" text-anchor="middle" font-size="13" font-weight="700" fill="#ffffff">Token Issuer</text><text x="2028" y="1552" text-anchor="middle" font-size="10" fill="#ffffff" opacity="0.82">TokenIssuer</text></g>
<line x1="2204" y1="114" x2="2204" y2="1516" stroke="#c4ccd4" stroke-width="1.4" stroke-dasharray="2 5"/>
<g><rect x="2129" y="66" width="150" height="48" rx="7" fill="#1d4ed8"/><text x="2204" y="86" text-anchor="middle" font-size="13" font-weight="700" fill="#ffffff">Formatter</text><text x="2204" y="102" text-anchor="middle" font-size="10" fill="#ffffff" opacity="0.82">AuthResponseFormatter</text></g>
<g><rect x="2129" y="1516" width="150" height="48" rx="7" fill="#1d4ed8"/><text x="2204" y="1536" text-anchor="middle" font-size="13" font-weight="700" fill="#ffffff">Formatter</text><text x="2204" y="1552" text-anchor="middle" font-size="10" fill="#ffffff" opacity="0.82">AuthResponseFormatter</text></g>
<g><line x1="24" y1="162" x2="2295" y2="162" stroke="#e2e8ee" stroke-width="1"/><rect x="998.2" y="149" width="322.6" height="26" rx="13" fill="#eef2f6" stroke="#cfd8e0"/><text x="1159.5" y="166" text-anchor="middle" font-size="11.5" font-weight="700" letter-spacing="0.6" fill="#516170">1 · REDIRECT &amp; PROVIDER AUTHENTICATION</text></g>
<g><rect x="-14.5" y="171" width="389" height="15" fill="#ffffff"/><text x="180" y="183" text-anchor="middle" font-size="12" fill="#2c3742">GET /{provider}/redirect  →  302 to provider  →  consent</text><line x1="92" y1="192" x2="268" y2="192" stroke="#2b3a4a" stroke-width="1.5" marker-end="url(#call)"/></g>
<g><rect x="196.425" y="207" width="319.15" height="15" fill="#ffffff"/><text x="356" y="219" text-anchor="middle" font-size="12" fill="#2c3742">redirectUrl(provider, context)  ·  state created</text><line x1="268" y1="228" x2="444" y2="228" stroke="#2b3a4a" stroke-width="1.5" marker-end="url(#call)"/></g>
<g><rect x="448.625" y="243" width="166.75" height="15" fill="#ffffff"/><text x="532" y="255" text-anchor="middle" font-size="12" fill="#2c3742">create(provider, context)</text><line x1="444" y1="264" x2="620" y2="264" stroke="#2b3a4a" stroke-width="1.5" marker-end="url(#call)"/></g>
<g><rect x="442.275" y="279" width="179.45" height="15" fill="#ffffff"/><text x="532" y="291" text-anchor="middle" font-size="12" fill="#2c3742">one-time state, nonce, PKCE</text><line x1="620" y1="300" x2="444" y2="300" stroke="#78868f" stroke-width="1.5" stroke-dasharray="6 4" marker-end="url(#ret)"/></g>
<g><rect x="432.75" y="315" width="198.5" height="15" fill="#ffffff"/><text x="532" y="327" text-anchor="middle" font-size="12" fill="#2c3742">302  →  /callback?code&amp;state</text><line x1="972" y1="336" x2="92" y2="336" stroke="#78868f" stroke-width="1.5" stroke-dasharray="6 4" marker-end="url(#ret)"/></g>
<g><line x1="24" y1="386" x2="2295" y2="386" stroke="#e2e8ee" stroke-width="1"/><rect x="990.8" y="373" width="337.4" height="26" rx="13" fill="#eef2f6" stroke="#cfd8e0"/><text x="1159.5" y="390" text-anchor="middle" font-size="11.5" font-weight="700" letter-spacing="0.6" fill="#516170">2 · CALLBACK, PROVISIONING &amp; FIRST LOGIN</text></g>
<g><rect x="64.875" y="395" width="230.25" height="15" fill="#ffffff"/><text x="180" y="407" text-anchor="middle" font-size="12" fill="#2c3742">GET /{provider}/callback?code&amp;state</text><line x1="92" y1="416" x2="268" y2="416" stroke="#2b3a4a" stroke-width="1.5" marker-end="url(#call)"/></g>
<g><rect x="237.7" y="431" width="236.6" height="15" fill="#ffffff"/><text x="356" y="443" text-anchor="middle" font-size="12" fill="#2c3742">loginFromCallback(provider, context)</text><line x1="268" y1="452" x2="444" y2="452" stroke="#2b3a4a" stroke-width="1.5" marker-end="url(#call)"/></g>
<g><rect x="423.225" y="467" width="217.55" height="15" fill="#ffffff"/><text x="532" y="479" text-anchor="middle" font-size="12" fill="#2c3742">consume(provider, state, request)</text><line x1="444" y1="488" x2="620" y2="488" stroke="#2b3a4a" stroke-width="1.5" marker-end="url(#call)"/></g>
<g><rect x="420.05" y="503" width="223.9" height="15" fill="#ffffff"/><text x="532" y="515" text-anchor="middle" font-size="12" fill="#2c3742">state OK  →  restore app context</text><line x1="620" y1="524" x2="444" y2="524" stroke="#78868f" stroke-width="1.5" stroke-dasharray="6 4" marker-end="url(#ret)"/></g>
<g><rect x="536.625" y="539" width="166.75" height="15" fill="#ffffff"/><text x="620" y="551" text-anchor="middle" font-size="12" fill="#2c3742">userFromCallback(context)</text><line x1="444" y1="560" x2="796" y2="560" stroke="#2b3a4a" stroke-width="1.5" marker-end="url(#call)"/></g>
<g><rect x="756.175" y="575" width="255.65" height="15" fill="#ffffff"/><text x="884" y="587" text-anchor="middle" font-size="12" fill="#2c3742">exchange code / verify id_token (nonce)</text><line x1="796" y1="596" x2="972" y2="596" stroke="#2b3a4a" stroke-width="1.5" marker-end="url(#call)"/></g>
<g><rect x="800.625" y="611" width="166.75" height="15" fill="#ffffff"/><text x="884" y="623" text-anchor="middle" font-size="12" fill="#2c3742">profile + verified claims</text><line x1="972" y1="632" x2="796" y2="632" stroke="#78868f" stroke-width="1.5" stroke-dasharray="6 4" marker-end="url(#ret)"/></g>
<g><rect x="523.925" y="647" width="192.15" height="15" fill="#ffffff"/><text x="620" y="659" text-anchor="middle" font-size="12" fill="#2c3742">ExternalIdentity (normalized)</text><line x1="796" y1="668" x2="444" y2="668" stroke="#78868f" stroke-width="1.5" stroke-dasharray="6 4" marker-end="url(#ret)"/></g>
<g><path d="M444,704 h46 v18 h-46" fill="none" stroke="#2b3a4a" stroke-width="1.5" marker-end="url(#call)"/><text x="498" y="709" font-size="12" fill="#2c3742">validateIdentity()  ·  require_email / allowed_user_types / prevent_admin_auto_provision</text></g>
<g><rect x="639.6" y="725" width="312.8" height="15" fill="#ffffff"/><text x="796" y="737" text-anchor="middle" font-size="12" fill="#2c3742">findByProviderIdentity(provider, providerUserId)</text><line x1="444" y1="746" x2="1148" y2="746" stroke="#2b3a4a" stroke-width="1.5" marker-end="url(#call)"/></g>
<g><rect x="696.75" y="761" width="198.5" height="15" fill="#ffffff"/><text x="796" y="773" text-anchor="middle" font-size="12" fill="#2c3742">null  →  identity not linked</text><line x1="1148" y1="782" x2="444" y2="782" stroke="#78868f" stroke-width="1.5" stroke-dasharray="6 4" marker-end="url(#ret)"/></g>
<g><rect x="458" y="818" width="327.8" height="44" rx="4" fill="#fff6e5" stroke="#efc667"/><text x="470" y="835" font-size="11" fill="#7a5b12">allow_email_linking only (opt-in) and requires a</text><text x="470" y="849" font-size="11" fill="#7a5b12">verified provider email before matching by email.</text></g>
<g><rect x="711.725" y="867" width="344.55" height="15" fill="#ffffff"/><text x="884" y="879" text-anchor="middle" font-size="12" fill="#2c3742">resolveByEmail(identity)  ·  optional, verified only</text><line x1="444" y1="888" x2="1324" y2="888" stroke="#2b3a4a" stroke-width="1.5" marker-end="url(#call)"/></g>
<g><rect x="794.275" y="903" width="179.45" height="15" fill="#ffffff"/><text x="884" y="915" text-anchor="middle" font-size="12" fill="#2c3742">null  →  no existing user</text><line x1="1324" y1="924" x2="444" y2="924" stroke="#78868f" stroke-width="1.5" stroke-dasharray="6 4" marker-end="url(#ret)"/></g>
<g><rect x="458" y="960" width="265.8" height="44" rx="4" fill="#fff6e5" stroke="#efc667"/><text x="470" y="977" font-size="11" fill="#7a5b12">auto_provision must be enabled, else</text><text x="470" y="991" font-size="11" fill="#7a5b12">UserProvisioningNotConfiguredException.</text></g>
<g><rect x="806.075" y="1009" width="331.85" height="15" fill="#ffffff"/><text x="972" y="1021" text-anchor="middle" font-size="12" fill="#2c3742">provision(identity, context)  ·  create local user</text><line x1="444" y1="1030" x2="1500" y2="1030" stroke="#2b3a4a" stroke-width="1.5" marker-end="url(#call)"/></g>
<g><rect x="907.675" y="1045" width="128.65" height="15" fill="#ffffff"/><text x="972" y="1057" text-anchor="middle" font-size="12" fill="#2c3742">new Authenticatable</text><line x1="1500" y1="1066" x2="444" y2="1066" stroke="#78868f" stroke-width="1.5" stroke-dasharray="6 4" marker-end="url(#ret)"/></g>
<g><path d="M444,1102 h46 v18 h-46" fill="none" stroke="#2b3a4a" stroke-width="1.5" marker-end="url(#call)"/><text x="498" y="1107" font-size="12" fill="#2c3742">event ExternalUserProvisioned</text></g>
<g><rect x="992.5" y="1123" width="135" height="15" fill="#ffffff"/><text x="1060" y="1135" text-anchor="middle" font-size="12" fill="#2c3742">ensureCanLogin(user)</text><line x1="444" y1="1144" x2="1676" y2="1144" stroke="#2b3a4a" stroke-width="1.5" marker-end="url(#call)"/></g>
<g><rect x="620.55" y="1159" width="350.9" height="15" fill="#ffffff"/><text x="796" y="1171" text-anchor="middle" font-size="12" fill="#2c3742">create(userId, identity)  ·  link tenant+provider+sub</text><line x1="444" y1="1180" x2="1148" y2="1180" stroke="#2b3a4a" stroke-width="1.5" marker-end="url(#call)"/></g>
<g><rect x="1080.5" y="1195" width="135" height="15" fill="#ffffff"/><text x="1148" y="1207" text-anchor="middle" font-size="12" fill="#2c3742">sync(user, identity)</text><line x1="444" y1="1216" x2="1852" y2="1216" stroke="#2b3a4a" stroke-width="1.5" marker-end="url(#call)"/></g>
<g><rect x="1168.5" y="1231" width="135" height="15" fill="#ffffff"/><text x="1236" y="1243" text-anchor="middle" font-size="12" fill="#2c3742">issue(user, context)</text><line x1="444" y1="1252" x2="2028" y2="1252" stroke="#2b3a4a" stroke-width="1.5" marker-end="url(#call)"/></g>
<g><rect x="1178.025" y="1267" width="115.95" height="15" fill="#ffffff"/><text x="1236" y="1279" text-anchor="middle" font-size="12" fill="#2c3742">tokens + metadata</text><line x1="2028" y1="1288" x2="444" y2="1288" stroke="#78868f" stroke-width="1.5" stroke-dasharray="6 4" marker-end="url(#ret)"/></g>
<g><path d="M444,1324 h46 v18 h-46" fill="none" stroke="#2b3a4a" stroke-width="1.5" marker-end="url(#call)"/><text x="498" y="1329" font-size="12" fill="#2c3742">event ExternalLoginSucceeded</text></g>
<g><rect x="193.25" y="1345" width="325.5" height="15" fill="#ffffff"/><text x="356" y="1357" text-anchor="middle" font-size="12" fill="#2c3742">AuthResult (was_provisioned=true, was_linked=true)</text><line x1="444" y1="1366" x2="268" y2="1366" stroke="#78868f" stroke-width="1.5" stroke-dasharray="6 4" marker-end="url(#ret)"/></g>
<g><rect x="1158.975" y="1381" width="154.05" height="15" fill="#ffffff"/><text x="1236" y="1393" text-anchor="middle" font-size="12" fill="#2c3742">format(result, context)</text><line x1="268" y1="1402" x2="2204" y2="1402" stroke="#2b3a4a" stroke-width="1.5" marker-end="url(#call)"/></g>
<g><rect x="1181.2" y="1417" width="109.6" height="15" fill="#ffffff"/><text x="1236" y="1429" text-anchor="middle" font-size="12" fill="#2c3742">response payload</text><line x1="2204" y1="1438" x2="268" y2="1438" stroke="#78868f" stroke-width="1.5" stroke-dasharray="6 4" marker-end="url(#ret)"/></g>
<g><rect x="4.55" y="1453" width="350.9" height="15" fill="#ffffff"/><text x="180" y="1465" text-anchor="middle" font-size="12" fill="#2c3742">200 JSON  { access_token, user, was_provisioned:true }</text><line x1="268" y1="1474" x2="92" y2="1474" stroke="#78868f" stroke-width="1.5" stroke-dasharray="6 4" marker-end="url(#ret)"/></g>
</svg>
